# xmcd
#
# Track frame offsets:
# 150
# 12620
# 26080
# 43812
# 60057
# 78170
# 94007
# 110915
# 125227
# 143637
# 160252
# 174920
# 192932
# 209622
#
# Disc length: 3064 seconds
#
#
# Revision: 0
# Processed by: cddbd v1.5.2PL0 Copyright (c) Steve Scherf et al.
# Submitted via: FreeRIP 2.96 
#
DISCID=c00bf60e
DTITLE=GIAN E GIOVANI - SUPER 3 - CD2 - GIAN E GIOVANI
DYEAR=1900
DGENRE=
TTITLE0=ESPUMA DE CERVEJA
TTITLE1=GRÃO DE AREIA
TTITLE2=METO O PÉ NA PORTA
TTITLE3=SONHOS DE BRINQUEDO
TTITLE4=DOIS IRMÃOS
TTITLE5=ANOITECEU
TTITLE6=O BRASIL PARA SEM CAMINHÃO
TTITLE7=RECHEIO DE CARAMELO
TTITLE8=CANSEI DE NAMORAR A SOLIDÃO
TTITLE9=SAI DESSA CORAÇÃO
TTITLE10=COM OUTRO FOI EMBORA
TTITLE11=NA DOÇURA DOS SEUS BEIJOS
TTITLE12=VIDA DE PEÃO
TTITLE13=PADROEIRA DO RODEIO
EXTD=
EXTT0=
EXTT1=
EXTT2=
EXTT3=
EXTT4=
EXTT5=
EXTT6=
EXTT7=
EXTT8=
EXTT9=
EXTT10=
EXTT11=
EXTT12=
EXTT13=
PLAYORDER=
